<svg version="1.1" id="Layer_1" xmlns="http://www.w3.org/2000/svg" xmlns:xlink="http://www.w3.org/1999/xlink" x="0px" y="0px" viewBox="0 0 500 500" style="width: 188px;" xml:space="preserve" data-imageid="fishing-7" imageName="Fishing" class="illustrations_image">
<style type="text/css">
	.st0_fishing-7{fill:#2FB7B3;}
	.st1_fishing-7{opacity:0.68;}
	.st2_fishing-7{fill:#F2F2F2;}
	.st3_fishing-7{fill:url(#SVGID_1_);}
	.st4_fishing-7{fill:#218782;}
	.st5_fishing-7{opacity:0.52;fill:url(#SVGID_00000019665283506525799850000002270578578380046483_);enable-background:new    ;}
	.st6_fishing-7{fill:#006837;}
	.st7_fishing-7{fill:#68E1FD;}
	.st8_fishing-7{fill:#F6982C;}
	.st9_fishing-7{fill:#42210B;}
	.st10_fishing-7{opacity:0.5;fill:#42210B;enable-background:new    ;}
	.st11_fishing-7{opacity:0.61;fill:#218782;enable-background:new    ;}
	.st12_fishing-7{fill:#E8AC70;}
	.st13_fishing-7{fill:#527C00;}
	.st14_fishing-7{fill:#FFB56C;}
</style>
<path id="Base_fishing-7" class="st0_fishing-7" d="M41.7,302.7c35.7,20.1,121.9,71.2,156.6,91.8c9.1,5.4,20.5,5.5,29.7,0.1l246.4-144&#10;&#9;c4.7-2.8,6.3-9,3.5-13.7c-0.9-1.5-2.1-2.7-3.6-3.5l-157.4-89.8c-7.7-4.4-17.1-4.4-24.8,0L41.7,285.4c-3.6,4.1-4.1,3.1-4.1,8.6&#10;&#9;S37.5,297.9,41.7,302.7z"/>
<g id="Wave_fishing-7">
	<g class="st1_fishing-7">
		<path class="st2_fishing-7" d="M143.1,328.6c-3.6-0.6-5.8-2.1-5.8-3.4c0-1,1.3-2.1,3.6-2.9c-0.2-0.4-0.4-0.8-0.6-1.2&#10;&#9;&#9;&#9;c-2.6,0.9-4.3,2.4-4.3,4.1c0,2.2,2.7,4,6.8,4.7C142.8,329.5,143,329.1,143.1,328.6z"/>
		<path class="st2_fishing-7" d="M155.1,321.7c-0.3,0.4-0.6,0.7-0.9,1.1c1.7,0.7,2.6,1.6,2.6,2.5s-1,1.8-2.6,2.5c0.2,0.4,0.4,0.8,0.7,1.2&#10;&#9;&#9;&#9;c2-0.9,3.2-2.2,3.2-3.7S157,322.6,155.1,321.7z"/>
	</g>
	<g class="st1_fishing-7">
		<path class="st2_fishing-7" d="M169.3,318l-1.3,0.8c4.2,2.1,6.8,4.9,6.8,8c0,5.2-7.7,9.7-18.3,11.4c0.1,0.4,0.2,0.9,0.3,1.3&#10;&#9;&#9;&#9;c11.4-1.8,19.4-6.7,19.4-12.7C176.1,323.4,173.6,320.4,169.3,318z"/>
		<path class="st2_fishing-7" d="M125.5,334.4c-3.9-2.1-6.2-4.7-6.2-7.6s2.7-5.8,6.9-8l-0.9-1c-4.6,2.4-7.3,5.5-7.3,9c0,3.2,2.4,6.2,6.4,8.5&#10;&#9;&#9;&#9;C124.8,335,125.1,334.7,125.5,334.4z"/>
	</g>
</g>
<g id="Shadow_fishing-7">
	
		<linearGradient id="SVGID_1_-fishing-7" gradientUnits="userSpaceOnUse" x1="170.6375" y1="-286.6625" x2="351.5875" y2="-467.6125" gradientTransform="matrix(1 0 0 1 2.000000e-02 641.73)">
		<stop offset="0" style="stop-color:#218782;stop-opacity:0"/>
		<stop offset="0.99" style="stop-color:#006837"/>
	</linearGradient>
	<polyline class="st3_fishing-7" points="207.9,280.8 107.6,336.4 167.2,372.1 325.1,282.4 &#9;"/>
	<path class="st4_fishing-7" d="M373.2,232.6c0,0,1.8,12.8,0,16.4s-81.8,59.2-118.9,68.8s-69.4,4.9-74.5,0.2s8.2-30.9,31.5-28.5"/>
	
		<linearGradient id="SVGID_00000123417419470372355210000018421060743399293094_-fishing-7" gradientUnits="userSpaceOnUse" x1="383.8711" y1="-395.6089" x2="443.1711" y2="-454.9189" gradientTransform="matrix(1 0 0 1 2.000000e-02 641.73)">
		<stop offset="0" style="stop-color:#218782;stop-opacity:0"/>
		<stop offset="1" style="stop-color:#F6982C"/>
	</linearGradient>
	<path style="opacity:0.52;fill:url(#SVGID_00000123417419470372355210000018421060743399293094_);enable-background:new    ;" d="&#10;&#9;&#9;M426.9,223.5c0.1-0.5,0.3-1,0.4-1.4c-1.3-2-2.9-3.9-4.6-5.6c-0.2-0.2-0.4-0.5-0.4-0.8l-3.5-1.6l-52.3,28.3l9.9,10.8l50.5-29&#10;&#9;&#9;C426.8,224,426.8,223.7,426.9,223.5z"/>
</g>
<g id="Grass_fishing-7">
	<path class="st6_fishing-7" d="M191.9,213.4c0.7,0.7,1.8,1,2.8,0.9c2-24.6-19.9-25.8-19.9-25.8C192,194.3,192.3,208.6,191.9,213.4z"/>
	<path class="st6_fishing-7" d="M195.5,218.1c-1.4-0.4,0-33.8,0-33.8l2.9,33.8C198.4,218.1,198.1,218.9,195.5,218.1z"/>
	<path class="st6_fishing-7" d="M197.4,217.1c0.2-0.8-1.9-21.9,11.9-27c-6.1,7.7-9.5,17.2-9.6,27"/>
	<path class="st6_fishing-7" d="M416.7,216.1c1.1,1.1,2.7,1.6,4.2,1.3c3.1-37.9-30.7-39.9-30.7-39.9C416.8,186.7,417.3,208.8,416.7,216.1z"/>
	<path class="st6_fishing-7" d="M422.2,223.4c-2.2-0.7,0-52.1,0-52.1l4.5,52.1C426.7,223.4,426.2,224.7,422.2,223.4z"/>
	<path class="st6_fishing-7" d="M425.1,221.8c0.3-1.3-2.9-33.7,18.5-41.6c-9.4,11.9-14.7,26.5-14.9,41.6"/>
</g>
<g id="Fishes_fishing-7">
	<path class="st4_fishing-7" d="M141.2,290.9c0.3,0.3,0.8,0.5,1.2,0.4c0.7-0.3,4.3-2.3,5.5-4.9c0.1-0.8-0.4-1.5-1.1-1.8"/>
	<path class="st4_fishing-7" d="M132.5,290.9c0.5-6.6,6.2-11.6,12.8-11.1c0,0,0.1,0,0.1,0c0.9,0.1,1.8,0.2,2.7,0.5c0,0,1.3-4.4,2.5-3.7&#10;&#9;&#9;s1.7,5.5,0.8,6.1s-2.6,0.1-2.6,0.1c-1,2.6-2.7,4.9-4.8,6.6C140.7,291.9,134.3,294.3,132.5,290.9z"/>
	<path class="st4_fishing-7" d="M135.9,283.5c0.3-1.4,1.1-2.6,2.3-3.4c1.9-1.5,7.1-2.4,8-2s0.9,1.9,0.9,1.9S140.4,279.7,135.9,283.5z"/>
	<path class="st4_fishing-7" d="M141.5,286.4c0.2,0,2.5-0.2,2.6,0.2s-1.9,1.9-2.6,2S141.5,286.4,141.5,286.4z"/>
	<circle class="st4_fishing-7" cx="136.4" cy="287.5" r="0.5"/>
	<path class="st4_fishing-7" d="M110.4,295.7c0.4,0.5,1.1,0.6,1.7,0.5c0.9-0.4,5.7-3.1,7.3-6.6c0.1-1-0.5-2-1.5-2.4"/>
	<path class="st4_fishing-7" d="M98.9,295.7c0.4-4.8,2.9-9.2,6.9-12.1c6.3-4.6,13.9-2.1,13.9-2.1s1.8-5.8,3.3-5s2.3,7.3,1.1,8.1&#10;&#9;&#9;s-3.6,0.2-3.6,0.2c-1.3,3.4-3.5,6.5-6.4,8.9C109.8,296.9,101.3,300.1,98.9,295.7z"/>
	<path class="st4_fishing-7" d="M103.4,285.8c0.4-1.8,1.5-3.4,3-4.5c2.6-1.9,9.4-3.2,10.6-2.7s1.2,2.6,1.2,2.6S109.5,280.8,103.4,285.8z"/>
	<path class="st4_fishing-7" d="M110.8,289.6c0.3,0,3.3-0.2,3.4,0.3s-2.5,2.5-3.4,2.6S110.8,289.6,110.8,289.6z"/>
	<circle class="st4_fishing-7" cx="104.1" cy="291.2" r="0.6"/>
	<path class="st4_fishing-7" d="M127.1,264.8c0.3,0.3,0.8,0.5,1.2,0.4c0.7-0.3,4.3-2.3,5.5-4.9c0.1-0.8-0.4-1.5-1.1-1.8"/>
	<path class="st4_fishing-7" d="M118.4,264.8c0.5-6.6,6.2-11.6,12.8-11.1c0,0,0.1,0,0.1,0c0.9,0.1,1.8,0.2,2.7,0.5c0,0,1.3-4.4,2.5-3.7&#10;&#9;&#9;s1.7,5.5,0.8,6.1s-2.6,0.1-2.6,0.1c-1,2.6-2.7,4.9-4.8,6.6C126.6,265.7,120.2,268.1,118.4,264.8z"/>
	<path class="st4_fishing-7" d="M121.8,257.4c0.3-1.4,1.1-2.7,2.3-3.5c1.9-1.4,7-2.4,8-2s0.9,1.9,0.9,1.9S126.3,253.6,121.8,257.4z"/>
	<path class="st4_fishing-7" d="M127.4,260.2c0.2,0,2.5-0.2,2.6,0.2s-1.9,1.9-2.6,2S127.4,260.2,127.4,260.2z"/>
	<circle class="st4_fishing-7" cx="122.3" cy="261.4" r="0.5"/>
	<path class="st4_fishing-7" d="M402,255.9c0.5,0.5,1.2,0.7,1.9,0.5c1-0.4,6.5-3.5,8.3-7.4c0.1-1.2-0.6-2.3-1.7-2.6"/>
	<path class="st4_fishing-7" d="M389,255.9c-0.2-0.4,0.7-8.4,7.8-13.6s15.7-2.4,15.7-2.4s2.1-6.5,3.7-5.6s2.6,8.2,1.2,9.2s-4.1,0.2-4.1,0.2&#10;&#9;&#9;s-2.4,6.4-7.2,10.1S391.7,260.9,389,255.9z"/>
	<path class="st4_fishing-7" d="M394.1,244.7c0.4-2.1,1.7-3.9,3.4-5.1c2.9-2.2,10.6-3.7,11.9-3s1.4,2.9,1.4,2.9S400.9,239,394.1,244.7z"/>
	<path class="st4_fishing-7" d="M402.5,249.1c0.4,0,3.7-0.3,3.9,0.3s-2.9,2.9-3.9,3.1S402.5,249.1,402.5,249.1z"/>
	<circle class="st4_fishing-7" cx="394.8" cy="250.8" r="0.7"/>
</g>
<g id="Fishermen_and_Boat_fishing-7">
	<path class="st7_fishing-7 targetColor" d="M167.2,299c0,0-9.9-14,14.3-37.3s128.5-80.9,152.9-84.3s40.6,2.2,45.6,14.9" style="fill: rgb(145, 76, 66);"/>
	<path class="st7_fishing-7 targetColor" d="M167.2,299c14.4,10.3,32.2,14.8,49.8,12.4c29.8-4,59.3-11.7,86.5-29s69.8-49.8,69.8-49.8&#10;&#9;&#9;c5.2-9.7,8-20.5,8.1-31.5c0.2-18.5-16.6-23.6-32.1-21.1" style="fill: rgb(145, 76, 66);"/>
	<path class="st8_fishing-7" d="M194.2,275.9c0,0,90.8-54.4,120.4-60.9s25.9,20.6,25.9,20.6s-78.2,50.2-113,55.7S194.2,275.9,194.2,275.9z"/>
	<polyline class="st9_fishing-7" points="207.2,250.1 207.2,253.2 258,282.4 275.6,273.9 276.6,271.6 &#9;"/>
	<polygon class="st0_fishing-7" points="207.2,250.1 259.1,279.8 276.6,271.6 222.8,240.1 &#9;"/>
	<polyline class="st9_fishing-7" points="268.8,216.2 268.8,219.2 319.5,248.4 337.1,240 338.1,237.7 &#9;"/>
	<polygon class="st0_fishing-7" points="268.8,216.2 320.6,245.8 338.1,237.7 284.3,206.1 &#9;"/>
	<path class="st7_fishing-7 targetColor" d="M309.8,191.5l49.1,28.1l20.8-19.8c0,0,3-12.1-10.9-19.4S322.3,180.4,309.8,191.5z" style="fill: rgb(145, 76, 66);"/>
	<polygon class="st7_fishing-7 targetColor" points="309.8,191.5 309.8,217.5 340.5,235.7 358.8,219.5 &#9;" style="fill: rgb(145, 76, 66);"/>
	<path class="st10_fishing-7" d="M309.8,191.5l49.1,28.1l20.8-19.8c0,0,3-12.1-10.9-19.4S322.3,180.4,309.8,191.5z"/>
	<polygon class="st11_fishing-7" points="309.8,191.5 309.8,217.5 340.5,235.7 358.8,219.5 &#9;"/>
	<polyline class="st12_fishing-7" points="229.1,226 223.3,257.1 232.7,255.3 &#9;"/>
	<path class="st6_fishing-7" d="M253.3,253.3c0,0,3.5,12.3-2.2,16.8s-14.6,5-15.7,7.2s-3,13.2-3,13.2l-12.9,2.7c0,0,2.6-18.1,5.4-22.4&#10;&#9;&#9;c1.9-2.6,4.7-4.5,7.8-5.1c0,0-9.4,1.7-11.2,5.1s-2.9,13.5-2.9,13.5s-8.3,2.2-10.8-3.4c0,0,3.1-19.3,6.3-22s17-6.7,17-6.7"/>
	<path class="st13_fishing-7" d="M242.8,218.4c1.7,1.2,9.1,2.9,12.4,9.1c3.2,6.2,4.9,22.6-0.2,25.7c-3.6,2.2-15.5-3.3-15.5-3.3l3.3-8.4&#10;&#9;&#9;l7.8,2.5"/>
	<path class="st13_fishing-7" d="M238.1,218.4c0,0-6.8-1.4-7.9,1.3s-5.9,15.9-5.1,19.2s7.7,11.6,7.7,11.6l3.3-4.6l-3.3-5.1l2.6-12.2"/>
	<path class="st13_fishing-7" d="M252.6,250.7c0,0,2.6,8.2,0,9s-21.6-3.4-22.8-6.4s-2.4-14.8-0.8-18.9s7-21.1,10.8-19.3s11.2,17.1,11.2,17.1&#10;&#9;&#9;L252.6,250.7z"/>
	<path class="st12_fishing-7" d="M232.8,208.2c-0.2,0.6,1.2,11.2,3.7,11.6s7.8-1,8.2-3.3s0.8-8.6-1.7-9.8S234.3,204.1,232.8,208.2z"/>
	<path class="st9_fishing-7" d="M231.4,205c0,0-0.4,4.4,1.4,4.9s2.9-2.4,5.4-1.6s1.4,3.8,3.3,4.3s1.1,4.5,2.1,4.2s3.5-2.6,4.5-6.4&#10;&#9;&#9;s-1.9-9.1-6.3-9.2S232.1,202.3,231.4,205z"/>
	<path class="st9_fishing-7" d="M238.8,246.5c0,0-44.4-51.3-68.7-43l-0.7-0.9c0,0,13.6-6.6,39.2,12.4s31.1,29.2,31.1,29.2L238.8,246.5z"/>
	<path class="st12_fishing-7" d="M246.2,244.3l-11.5-8.2l-4.1-6.1c0,0-5.9-2.1-5.8-2.1l3.5,3.2c0,0-4-1.1-4.8-0.4s0.4,4.3,2.6,5.4&#10;&#9;&#9;c1.3,0.7,2.7,1.1,4.1,1.3l4.1,5.9c0,0,5.1,6.9,7.5,6.8S246.2,244.3,246.2,244.3z"/>
	<path class="st2_fishing-7" d="M147.7,325.1h-1.3v-68.6C145.5,208,169,203,170,202.8l0.2,1.3c-0.2,0.1-23.4,5.1-22.6,52.4L147.7,325.1z"/>
	<path class="st14_fishing-7" d="M231,207.3l-2.6,2.7c7.2,2.6,15,2.9,22.3,0.8l-1.5-3.4"/>
	<path class="st8_fishing-7" d="M232.9,201.2c0,0-2.2,6-1.8,6.1c5.9,2.2,12.3,2.2,18.2,0l-1.8-5.4C247.4,201.9,238.8,203.8,232.9,201.2z"/>
	<ellipse class="st14_fishing-7" cx="240" cy="201.9" rx="7.4" ry="3"/>
	<path class="st7_fishing-7 targetColor" d="M169.5,296.9c0,0-7.8-10.6,12.3-31.7l45.6,26.2C227.5,291.4,179.8,302,169.5,296.9z" style="fill: rgb(145, 76, 66);"/>
	<path class="st10_fishing-7" d="M169.5,296.9c0,0-7.8-10.6,12.3-31.7l45.6,26.2C227.5,291.4,179.8,302,169.5,296.9z"/>
</g>
</svg>